Liang-a141014-Rajdhani_0.ufo
<glyph name="dvKxA" format="1">
  <advance width="724"/>
  <unicode hex="0958"/>
  <outline>
    <contour>
      <point x="377" y="623" type="move" name="abvm_Ekaar"/>
    </contour>
    <contour>
      <point x="377" y="623" type="move" name="abvm_Anusvara"/>
    </contour>
    <contour>
      <point x="347" y="0" type="move" name="blwm_Ukaar"/>
    </contour>
    <contour>
      <point x="347" y="0" type="move" name="blwm_Uukaar"/>
    </contour>
    <contour>
      <point x="347" y="0" type="move" name="blwm_halant"/>
    </contour>
    <contour>
      <point x="377" y="0" type="move" name="blwm_VocalicR"/>
    </contour>
    <component base="dvKA"/>
    <component base="dvNukta" xOffset="260" yOffset="52"/>
  </outline>
</glyph>
<glyph name="dvDDxA" format="1">
  <advance width="480"/>
  <unicode hex="095C"/>
  <outline>
    <contour>
      <point x="382" y="623" type="move" name="abvm_Ekaar"/>
    </contour>
    <contour>
      <point x="264" y="623" type="move" name="abvm_Anusvara"/>
    </contour>
    <contour>
      <point x="249" y="-180" type="move" name="blwm_Ukaar"/>
    </contour>
    <contour>
      <point x="229" y="-180" type="move" name="blwm_Uukaar"/>
    </contour>
    <contour>
      <point x="234" y="-120" type="move" name="blwm_halant"/>
    </contour>
    <contour>
      <point x="314" y="-180" type="move" name="blwm_VocalicR"/>
    </contour>
    <component base="dvDDA"/>
    <component base="dvNukta" xOffset="340" yOffset="-30"/>
  </outline>
</glyph>
<glyph name="dvDDHxA" format="1">
  <advance width="485"/>
  <unicode hex="095D"/>
  <outline>
    <contour>
      <point x="375" y="623" type="move" name="abvm_Ekaar"/>
    </contour>
    <contour>
      <point x="284" y="623" type="move" name="abvm_Anusvara"/>
    </contour>
    <contour>
      <point x="272" y="-150" type="move" name="blwm_Ukaar"/>
    </contour>
    <contour>
      <point x="239" y="-150" type="move" name="blwm_Uukaar"/>
    </contour>
    <contour>
      <point x="232" y="-90" type="move" name="blwm_halant"/>
    </contour>
    <contour>
      <point x="314" y="-150" type="move" name="blwm_VocalicR"/>
    </contour>
    <component base="dvDDHA"/>
    <component base="dvNukta" xOffset="340"/>
  </outline>
</glyph>
<glyph name="dvB_DA" format="1">
  <advance width="773"/>
  <outline>
    <contour>
      <point x="676" y="623" type="move" name="abvm_Ekaar"/>
    </contour>
    <contour>
      <point x="550" y="623" type="move" name="abvm_Anusvara"/>
    </contour>
    <contour>
      <point x="666" y="0" type="move" name="blwm_Ukaar"/>
    </contour>
    <contour>
      <point x="666" y="0" type="move" name="blwm_Uukaar"/>
    </contour>
    <contour>
      <point x="666" y="0" type="move" name="blwm_halant"/>
    </contour>
    <contour>
      <point x="694" y="0" type="move" name="blwm_VocalicR"/>
    </contour>
    <component base="dvB"/>
    <component base="dvDA" xOffset="285"/>
  </outline>
</glyph>
<glyph name="dvCH_NA" format="1">
  <advance width="968"/>
  <outline>
    <contour>
      <point x="474" y="623" type="move" name="abvm_Ekaar"/>
    </contour>
    <contour>
      <point x="303" y="623" type="move" name="abvm_Anusvara"/>
    </contour>
    <contour>
      <point x="404" y="-217" type="move" name="blwm_Ukaar"/>
    </contour>
    <contour>
      <point x="404" y="-217" type="move" name="blwm_Uukaar"/>
    </contour>
    <contour>
      <point x="404" y="-217" type="move" name="blwm_halant"/>
    </contour>
    <contour>
      <point x="434" y="-217" type="move" name="blwm_VocalicR"/>
    </contour>
    <contour>
      <point x="-1" y="623" type="line"/>
      <point x="-8" y="623"/>
      <point x="-10" y="620"/>
      <point x="-10" y="615" type="curve" smooth="yes"/>
      <point x="-10" y="606" type="line" smooth="yes"/>
      <point x="-10" y="601"/>
      <point x="-8" y="598"/>
      <point x="-1" y="598" type="curve" smooth="yes"/>
      <point x="122" y="598" type="line"/>
      <point x="122" y="594" type="line"/>
      <point x="93" y="578"/>
      <point x="83" y="547"/>
      <point x="83" y="500" type="curve" smooth="yes"/>
      <point x="83" y="439" type="line" smooth="yes"/>
      <point x="83" y="384"/>
      <point x="101" y="350"/>
      <point x="148" y="333" type="curve"/>
      <point x="148" y="329" type="line"/>
      <point x="103" y="314"/>
      <point x="83" y="280"/>
      <point x="83" y="221" type="curve" smooth="yes"/>
      <point x="83" y="170" type="line" smooth="yes"/>
      <point x="83" y="87"/>
      <point x="126" y="44"/>
      <point x="207" y="44" type="curve" smooth="yes"/>
      <point x="374" y="44" type="line" smooth="yes"/>
      <point x="455" y="44"/>
      <point x="508" y="97"/>
      <point x="508" y="180" type="curve" smooth="yes"/>
      <point x="508" y="365" type="line" smooth="yes"/>
      <point x="508" y="448"/>
      <point x="465" y="488"/>
      <point x="384" y="488" type="curve" smooth="yes"/>
      <point x="345" y="488" type="line" smooth="yes"/>
      <point x="338" y="488"/>
      <point x="336" y="485"/>
      <point x="336" y="480" type="curve" smooth="yes"/>
      <point x="336" y="471" type="line" smooth="yes"/>
      <point x="336" y="466"/>
      <point x="338" y="463"/>
      <point x="345" y="463" type="curve" smooth="yes"/>
      <point x="384" y="463" type="line" smooth="yes"/>
      <point x="451" y="463"/>
      <point x="478" y="432"/>
      <point x="478" y="364" type="curve" smooth="yes"/>
      <point x="478" y="181" type="line" smooth="yes"/>
      <point x="478" y="113"/>
      <point x="441" y="72"/>
      <point x="374" y="72" type="curve" smooth="yes"/>
      <point x="207" y="72" type="line" smooth="yes"/>
      <point x="140" y="72"/>
      <point x="113" y="103"/>
      <point x="113" y="171" type="curve" smooth="yes"/>
      <point x="113" y="220" type="line" smooth="yes"/>
      <point x="113" y="283"/>
      <point x="142" y="316"/>
      <point x="207" y="316" type="curve" smooth="yes"/>
      <point x="251" y="316" type="line" smooth="yes"/>
      <point x="258" y="316"/>
      <point x="260" y="319"/>
      <point x="260" y="324" type="curve" smooth="yes"/>
      <point x="260" y="336" type="line" smooth="yes"/>
      <point x="260" y="341"/>
      <point x="258" y="344"/>
      <point x="251" y="344" type="curve" smooth="yes"/>
      <point x="207" y="344" type="line" smooth="yes"/>
      <point x="145" y="344"/>
      <point x="113" y="377"/>
      <point x="113" y="440" type="curve" smooth="yes"/>
      <point x="113" y="499" type="line" smooth="yes"/>
      <point x="113" y="565"/>
      <point x="138" y="598"/>
      <point x="202" y="598" type="curve" smooth="yes"/>
      <point x="589" y="598" type="line" smooth="yes"/>
      <point x="596" y="598"/>
      <point x="598" y="601"/>
      <point x="598" y="606" type="curve" smooth="yes"/>
      <point x="598" y="615" type="line" smooth="yes"/>
      <point x="598" y="620"/>
      <point x="596" y="623"/>
      <point x="589" y="623" type="curve" smooth="yes"/>
    </contour>
    <contour>
      <point x="829" y="598" type="line"/>
      <point x="836" y="598"/>
      <point x="838" y="595"/>
      <point x="838" y="590" type="curve" smooth="yes"/>
      <point x="838" y="376" type="line" smooth="yes"/>
      <point x="838" y="371"/>
      <point x="836" y="368"/>
      <point x="829" y="368" type="curve"/>
      <point x="640" y="368" type="line" smooth="yes"/>
      <point x="579" y="368"/>
      <point x="550" y="330"/>
      <point x="550" y="279" type="curve" smooth="yes"/>
      <point x="550" y="259"/>
      <point x="556" y="232"/>
      <point x="564" y="208" type="curve" smooth="yes"/>
      <point x="566" y="201"/>
      <point x="570" y="199"/>
      <point x="575" y="199" type="curve" smooth="yes"/>
      <point x="588" y="199" type="line" smooth="yes"/>
      <point x="592" y="199"/>
      <point x="595" y="201"/>
      <point x="595" y="205" type="curve" smooth="yes"/>
      <point x="595" y="209"/>
      <point x="594" y="212"/>
      <point x="591" y="221" type="curve" smooth="yes"/>
      <point x="585" y="240"/>
      <point x="580" y="259"/>
      <point x="580" y="278" type="curve" smooth="yes"/>
      <point x="580" y="313"/>
      <point x="598" y="341"/>
      <point x="641" y="341" type="curve" smooth="yes"/>
      <point x="829" y="341" type="line" smooth="yes"/>
      <point x="836" y="341"/>
      <point x="838" y="338"/>
      <point x="838" y="333" type="curve" smooth="yes"/>
      <point x="838" y="9" type="line" smooth="yes"/>
      <point x="838" y="2"/>
      <point x="841" y="0"/>
      <point x="846" y="0" type="curve" smooth="yes"/>
      <point x="860" y="0" type="line" smooth="yes"/>
      <point x="865" y="0"/>
      <point x="868" y="2"/>
      <point x="868" y="9" type="curve" smooth="yes"/>
      <point x="868" y="590" type="line" smooth="yes"/>
      <point x="868" y="595"/>
      <point x="870" y="598"/>
      <point x="877" y="598" type="curve" smooth="yes"/>
      <point x="969" y="598" type="line" smooth="yes"/>
      <point x="976" y="598"/>
      <point x="978" y="601"/>
      <point x="978" y="606" type="curve" smooth="yes"/>
      <point x="978" y="615" type="line" smooth="yes"/>
      <point x="978" y="620"/>
      <point x="976" y="623"/>
      <point x="969" y="623" type="curve" smooth="yes"/>
      <point x="499" y="623" type="line" smooth="yes"/>
      <point x="492" y="623"/>
      <point x="490" y="620"/>
      <point x="490" y="615" type="curve" smooth="yes"/>
      <point x="490" y="606" type="line" smooth="yes"/>
      <point x="490" y="601"/>
      <point x="492" y="598"/>
      <point x="499" y="598" type="curve"/>
    </contour>
  </outline>
</glyph>
<glyph name="dvCH_RA" format="1">
  <advance width="588"/>
  <outline>
    <contour>
      <point x="476" y="623" type="move" name="abvm_Ekaar"/>
    </contour>
    <contour>
      <point x="303" y="623" type="move" name="abvm_Anusvara"/>
    </contour>
    <contour>
      <point x="332" y="-175" type="move" name="blwm_Ukaar"/>
    </contour>
    <contour>
      <point x="287" y="-175" type="move" name="blwm_Uukaar"/>
    </contour>
    <contour>
      <point x="286" y="-115" type="move" name="blwm_halant"/>
    </contour>
    <contour>
      <point x="369" y="-175" type="move" name="blwm_VocalicR"/>
    </contour>
    <component base="dvCHA"/>
    <component base="dvRashtrasign" xOffset="542" yOffset="62"/>
  </outline>
</glyph>
<glyph name="dvCH_VA" format="1">
  <advance width="588"/>
  <outline>
    <contour>
      <point x="476" y="623" type="move" name="abvm_Ekaar"/>
    </contour>
    <contour>
      <point x="303" y="623" type="move" name="abvm_Anusvara"/>
    </contour>
    <contour>
      <point x="339" y="-141" type="move" name="blwm_Ukaar"/>
    </contour>
    <contour>
      <point x="287" y="-141" type="move" name="blwm_Uukaar"/>
    </contour>
    <contour>
      <point x="286" y="-81" type="move" name="blwm_halant"/>
    </contour>
    <contour>
      <point x="354" y="-141" type="move" name="blwm_VocalicR"/>
    </contour>
    <contour>
      <point x="-1" y="623" type="line"/>
      <point x="-8" y="623"/>
      <point x="-10" y="620"/>
      <point x="-10" y="615" type="curve" smooth="yes"/>
      <point x="-10" y="606" type="line" smooth="yes"/>
      <point x="-10" y="601"/>
      <point x="-8" y="598"/>
      <point x="-1" y="598" type="curve" smooth="yes"/>
      <point x="122" y="598" type="line"/>
      <point x="122" y="594" type="line"/>
      <point x="93" y="578"/>
      <point x="83" y="547"/>
      <point x="83" y="500" type="curve" smooth="yes"/>
      <point x="83" y="479" type="line" smooth="yes"/>
      <point x="83" y="424"/>
      <point x="101" y="390"/>
      <point x="148" y="373" type="curve"/>
      <point x="148" y="369" type="line"/>
      <point x="103" y="354"/>
      <point x="83" y="320"/>
      <point x="83" y="261" type="curve" smooth="yes"/>
      <point x="83" y="249" type="line" smooth="yes"/>
      <point x="83" y="166"/>
      <point x="126" y="123"/>
      <point x="207" y="123" type="curve" smooth="yes"/>
      <point x="374" y="123" type="line" smooth="yes"/>
      <point x="457" y="123"/>
      <point x="508" y="179"/>
      <point x="508" y="271" type="curve" smooth="yes"/>
      <point x="508" y="357" type="line" smooth="yes"/>
      <point x="508" y="440"/>
      <point x="465" y="480"/>
      <point x="384" y="480" type="curve" smooth="yes"/>
      <point x="345" y="480" type="line" smooth="yes"/>
      <point x="338" y="480"/>
      <point x="336" y="477"/>
      <point x="336" y="472" type="curve" smooth="yes"/>
      <point x="336" y="463" type="line" smooth="yes"/>
      <point x="336" y="458"/>
      <point x="338" y="455"/>
      <point x="345" y="455" type="curve" smooth="yes"/>
      <point x="384" y="455" type="line" smooth="yes"/>
      <point x="451" y="455"/>
      <point x="478" y="424"/>
      <point x="478" y="356" type="curve" smooth="yes"/>
      <point x="478" y="260" type="line" smooth="yes"/>
      <point x="478" y="192"/>
      <point x="441" y="151"/>
      <point x="374" y="151" type="curve" smooth="yes"/>
      <point x="207" y="151" type="line" smooth="yes"/>
      <point x="140" y="151"/>
      <point x="113" y="182"/>
      <point x="113" y="250" type="curve" smooth="yes"/>
      <point x="113" y="260" type="line" smooth="yes"/>
      <point x="113" y="323"/>
      <point x="142" y="356"/>
      <point x="207" y="356" type="curve" smooth="yes"/>
      <point x="251" y="356" type="line" smooth="yes"/>
      <point x="258" y="356"/>
      <point x="260" y="359"/>
      <point x="260" y="364" type="curve" smooth="yes"/>
      <point x="260" y="376" type="line" smooth="yes"/>
      <point x="260" y="381"/>
      <point x="258" y="384"/>
      <point x="251" y="384" type="curve" smooth="yes"/>
      <point x="207" y="384" type="line" smooth="yes"/>
      <point x="145" y="384"/>
      <point x="113" y="417"/>
      <point x="113" y="480" type="curve" smooth="yes"/>
      <point x="113" y="499" type="line" smooth="yes"/>
      <point x="113" y="565"/>
      <point x="138" y="598"/>
      <point x="202" y="598" type="curve" smooth="yes"/>
      <point x="437" y="598" type="line" smooth="yes"/>
      <point x="444" y="598"/>
      <point x="446" y="595"/>
      <point x="446" y="590" type="curve" smooth="yes"/>
      <point x="446" y="491" type="line" smooth="yes"/>
      <point x="446" y="471"/>
      <point x="437" y="458"/>
      <point x="429" y="451" type="curve"/>
      <point x="464" y="451" type="line"/>
      <point x="472" y="458"/>
      <point x="476" y="471"/>
      <point x="476" y="488" type="curve" smooth="yes"/>
      <point x="476" y="590" type="line" smooth="yes"/>
      <point x="476" y="595"/>
      <point x="478" y="598"/>
      <point x="485" y="598" type="curve" smooth="yes"/>
      <point x="589" y="598" type="line" smooth="yes"/>
      <point x="596" y="598"/>
      <point x="598" y="601"/>
      <point x="598" y="606" type="curve" smooth="yes"/>
      <point x="598" y="615" type="line" smooth="yes"/>
      <point x="598" y="620"/>
      <point x="596" y="623"/>
      <point x="589" y="623" type="curve"/>
    </contour>
    <contour>
      <point x="446" y="172" type="line"/>
      <point x="446" y="56" type="line" smooth="yes"/>
      <point x="446" y="-12"/>
      <point x="409" y="-53"/>
      <point x="342" y="-53" type="curve" smooth="yes"/>
      <point x="232" y="-53" type="line" smooth="yes"/>
      <point x="165" y="-53"/>
      <point x="138" y="-22"/>
      <point x="138" y="46" type="curve" smooth="yes"/>
      <point x="138" y="90"/>
      <point x="161" y="123"/>
      <point x="223" y="123" type="curve"/>
      <point x="173" y="141" type="line"/>
      <point x="136" y="129"/>
      <point x="108" y="100"/>
      <point x="108" y="45" type="curve" smooth="yes"/>
      <point x="108" y="-38"/>
      <point x="151" y="-81"/>
      <point x="232" y="-81" type="curve" smooth="yes"/>
      <point x="342" y="-81" type="line" smooth="yes"/>
      <point x="423" y="-81"/>
      <point x="476" y="-28"/>
      <point x="476" y="55" type="curve" smooth="yes"/>
      <point x="476" y="172" type="line"/>
    </contour>
  </outline>
</glyph>
<glyph name="dvDD_NA" format="1">
  <advance width="480"/>
  <outline>
    <contour>
      <point x="382" y="623" type="move" name="abvm_Ekaar"/>
    </contour>
    <contour>
      <point x="273" y="623" type="move" name="abvm_Anusvara"/>
    </contour>
    <contour>
      <point x="352" y="-217" type="move" name="blwm_Ukaar"/>
    </contour>
    <contour>
      <point x="352" y="-217" type="move" name="blwm_Uukaar"/>
    </contour>
    <contour>
      <point x="352" y="-217" type="move" name="blwm_halant"/>
    </contour>
    <contour>
      <point x="382" y="-217" type="move" name="blwm_VocalicR"/>
    </contour>
    <contour>
      <point x="-1" y="623" type="line"/>
      <point x="-8" y="623"/>
      <point x="-10" y="620"/>
      <point x="-10" y="615" type="curve" smooth="yes"/>
      <point x="-10" y="606" type="line" smooth="yes"/>
      <point x="-10" y="601"/>
      <point x="-8" y="598"/>
      <point x="-1" y="598" type="curve" smooth="yes"/>
      <point x="344" y="598" type="line" smooth="yes"/>
      <point x="351" y="598"/>
      <point x="353" y="595"/>
      <point x="353" y="590" type="curve" smooth="yes"/>
      <point x="353" y="496" type="line" smooth="yes"/>
      <point x="353" y="491"/>
      <point x="351" y="488"/>
      <point x="344" y="488" type="curve" smooth="yes"/>
      <point x="207" y="488" type="line" smooth="yes"/>
      <point x="126" y="488"/>
      <point x="83" y="457"/>
      <point x="83" y="384" type="curve" smooth="yes"/>
      <point x="83" y="380" type="line" smooth="yes"/>
      <point x="83" y="307"/>
      <point x="126" y="276"/>
      <point x="207" y="276" type="curve" smooth="yes"/>
      <point x="288" y="276" type="line" smooth="yes"/>
      <point x="355" y="276"/>
      <point x="382" y="257"/>
      <point x="382" y="199" type="curve" smooth="yes"/>
      <point x="382" y="194" type="line" smooth="yes"/>
      <point x="382" y="136"/>
      <point x="355" y="115"/>
      <point x="288" y="115" type="curve" smooth="yes"/>
      <point x="192" y="115" type="line" smooth="yes"/>
      <point x="130" y="115"/>
      <point x="108" y="136"/>
      <point x="108" y="204" type="curve" smooth="yes"/>
      <point x="108" y="213" type="line" smooth="yes"/>
      <point x="108" y="220"/>
      <point x="105" y="222"/>
      <point x="100" y="222" type="curve" smooth="yes"/>
      <point x="86" y="222" type="line" smooth="yes"/>
      <point x="81" y="222"/>
      <point x="78" y="220"/>
      <point x="78" y="213" type="curve" smooth="yes"/>
      <point x="78" y="203" type="line" smooth="yes"/>
      <point x="78" y="120"/>
      <point x="116" y="87"/>
      <point x="192" y="87" type="curve" smooth="yes"/>
      <point x="288" y="87" type="line" smooth="yes"/>
      <point x="369" y="87"/>
      <point x="412" y="120"/>
      <point x="412" y="193" type="curve" smooth="yes"/>
      <point x="412" y="200" type="line" smooth="yes"/>
      <point x="412" y="273"/>
      <point x="369" y="304"/>
      <point x="288" y="304" type="curve" smooth="yes"/>
      <point x="207" y="304" type="line" smooth="yes"/>
      <point x="140" y="304"/>
      <point x="113" y="324"/>
      <point x="113" y="382" type="curve" smooth="yes"/>
      <point x="113" y="440"/>
      <point x="140" y="460"/>
      <point x="207" y="460" type="curve" smooth="yes"/>
      <point x="366" y="460" type="line" smooth="yes"/>
      <point x="375" y="460"/>
      <point x="382" y="468"/>
      <point x="382" y="478" type="curve" smooth="yes"/>
      <point x="382" y="590" type="line" smooth="yes"/>
      <point x="382" y="595"/>
      <point x="384" y="598"/>
      <point x="391" y="598" type="curve" smooth="yes"/>
      <point x="481" y="598" type="line" smooth="yes"/>
      <point x="488" y="598"/>
      <point x="490" y="601"/>
      <point x="490" y="606" type="curve" smooth="yes"/>
      <point x="490" y="615" type="line" smooth="yes"/>
      <point x="490" y="620"/>
      <point x="488" y="623"/>
      <point x="481" y="623" type="curve" smooth="yes"/>
    </contour>
    <contour>
      <point x="352" y="121" type="line"/>
      <point x="352" y="7" type="line" smooth="yes"/>
      <point x="352" y="2"/>
      <point x="350" y="-1"/>
      <point x="343" y="-1" type="curve" smooth="yes"/>
      <point x="172" y="-1" type="line" smooth="yes"/>
      <point x="111" y="-1"/>
      <point x="82" y="-39"/>
      <point x="82" y="-90" type="curve" smooth="yes"/>
      <point x="82" y="-110"/>
      <point x="88" y="-137"/>
      <point x="96" y="-161" type="curve" smooth="yes"/>
      <point x="98" y="-168"/>
      <point x="102" y="-170"/>
      <point x="107" y="-170" type="curve" smooth="yes"/>
      <point x="120" y="-170" type="line" smooth="yes"/>
      <point x="124" y="-170"/>
      <point x="127" y="-168"/>
      <point x="127" y="-164" type="curve" smooth="yes"/>
      <point x="127" y="-160"/>
      <point x="126" y="-157"/>
      <point x="123" y="-148" type="curve" smooth="yes"/>
      <point x="117" y="-129"/>
      <point x="112" y="-110"/>
      <point x="112" y="-91" type="curve" smooth="yes"/>
      <point x="112" y="-56"/>
      <point x="130" y="-28"/>
      <point x="173" y="-28" type="curve" smooth="yes"/>
      <point x="343" y="-28" type="line" smooth="yes"/>
      <point x="350" y="-28"/>
      <point x="352" y="-31"/>
      <point x="352" y="-36" type="curve" smooth="yes"/>
      <point x="352" y="-208" type="line" smooth="yes"/>
      <point x="352" y="-215"/>
      <point x="355" y="-217"/>
      <point x="360" y="-217" type="curve" smooth="yes"/>
      <point x="374" y="-217" type="line" smooth="yes"/>
      <point x="379" y="-217"/>
      <point x="382" y="-215"/>
      <point x="382" y="-208" type="curve" smooth="yes"/>
      <point x="382" y="121" type="line"/>
    </contour>
  </outline>
</glyph>
<glyph name="dvD_Y_RA" format="1">
  <advance width="604"/>
  <outline>
    <contour>
      <point x="209" y="491" type="line"/>
      <point x="128" y="491"/>
      <point x="85" y="459"/>
      <point x="85" y="386" type="curve" smooth="yes"/>
      <point x="85" y="380" type="line" smooth="yes"/>
      <point x="85" y="336"/>
      <point x="104" y="306"/>
      <point x="135" y="291" type="curve"/>
      <point x="135" y="287" type="line"/>
      <point x="102" y="271"/>
      <point x="85" y="242"/>
      <point x="85" y="199" type="curve" smooth="yes"/>
      <point x="85" y="169" type="line" smooth="yes"/>
      <point x="85" y="96"/>
      <point x="128" y="63"/>
      <point x="209" y="63" type="curve" smooth="yes"/>
      <point x="380" y="63" type="line" smooth="yes"/>
      <point x="418" y="63"/>
      <point x="441" y="71"/>
      <point x="470" y="94" type="curve"/>
      <point x="474" y="94" type="line"/>
      <point x="474" y="9" type="line" smooth="yes"/>
      <point x="474" y="2"/>
      <point x="477" y="0"/>
      <point x="482" y="0" type="curve" smooth="yes"/>
      <point x="496" y="0" type="line" smooth="yes"/>
      <point x="501" y="0"/>
      <point x="504" y="2"/>
      <point x="504" y="9" type="curve" smooth="yes"/>
      <point x="504" y="590" type="line" smooth="yes"/>
      <point x="504" y="595"/>
      <point x="506" y="598"/>
      <point x="513" y="598" type="curve"/>
      <point x="605" y="598" type="line"/>
      <point x="612" y="598"/>
      <point x="614" y="601"/>
      <point x="614" y="606" type="curve" smooth="yes"/>
      <point x="614" y="615" type="line" smooth="yes"/>
      <point x="614" y="620"/>
      <point x="612" y="623"/>
      <point x="605" y="623" type="curve" smooth="yes"/>
      <point x="-1" y="623" type="line" smooth="yes"/>
      <point x="-8" y="623"/>
      <point x="-10" y="620"/>
      <point x="-10" y="615" type="curve" smooth="yes"/>
      <point x="-10" y="606" type="line" smooth="yes"/>
      <point x="-10" y="601"/>
      <point x="-8" y="598"/>
      <point x="-1" y="598" type="curve" smooth="yes"/>
      <point x="273" y="598" type="line" smooth="yes"/>
      <point x="280" y="598"/>
      <point x="282" y="595"/>
      <point x="282" y="590" type="curve" smooth="yes"/>
      <point x="282" y="499" type="line" smooth="yes"/>
      <point x="282" y="494"/>
      <point x="280" y="491"/>
      <point x="273" y="491" type="curve" smooth="yes"/>
    </contour>
    <contour>
      <point x="295" y="463" type="line"/>
      <point x="304" y="463"/>
      <point x="311" y="471"/>
      <point x="311" y="481" type="curve" smooth="yes"/>
      <point x="311" y="590" type="line" smooth="yes"/>
      <point x="311" y="595"/>
      <point x="313" y="598"/>
      <point x="320" y="598" type="curve" smooth="yes"/>
      <point x="465" y="598" type="line"/>
      <point x="472" y="598"/>
      <point x="474" y="595"/>
      <point x="474" y="590" type="curve"/>
      <point x="474" y="180" type="line" smooth="yes"/>
      <point x="474" y="119"/>
      <point x="443" y="91"/>
      <point x="380" y="91" type="curve" smooth="yes"/>
      <point x="209" y="91" type="line" smooth="yes"/>
      <point x="142" y="91"/>
      <point x="115" y="112"/>
      <point x="115" y="170" type="curve" smooth="yes"/>
      <point x="115" y="198" type="line" smooth="yes"/>
      <point x="115" y="253"/>
      <point x="139" y="275"/>
      <point x="209" y="275" type="curve" smooth="yes"/>
      <point x="270" y="275" type="line" smooth="yes"/>
      <point x="277" y="275"/>
      <point x="279" y="278"/>
      <point x="279" y="283" type="curve" smooth="yes"/>
      <point x="279" y="295" type="line" smooth="yes"/>
      <point x="279" y="300"/>
      <point x="277" y="303"/>
      <point x="270" y="303" type="curve" smooth="yes"/>
      <point x="209" y="303" type="line" smooth="yes"/>
      <point x="142" y="303"/>
      <point x="115" y="323"/>
      <point x="115" y="381" type="curve" smooth="yes"/>
      <point x="115" y="385" type="line" smooth="yes"/>
      <point x="115" y="443"/>
      <point x="142" y="463"/>
      <point x="209" y="463" type="curve" smooth="yes"/>
    </contour>
    <contour>
      <point x="427" y="95" type="line"/>
      <point x="263" y="-41" type="line" smooth="yes"/>
      <point x="260" y="-44"/>
      <point x="259" y="-46"/>
      <point x="259" y="-49" type="curve" smooth="yes"/>
      <point x="259" y="-53"/>
      <point x="262" y="-56"/>
      <point x="267" y="-56" type="curve" smooth="yes"/>
      <point x="283" y="-56" type="line" smooth="yes"/>
      <point x="290" y="-56"/>
      <point x="295" y="-51"/>
      <point x="300" y="-47" type="curve" smooth="yes"/>
      <point x="483" y="105" type="line"/>
    </contour>
  </outline>
</glyph>
<glyph name="dvG_DA" format="1">
  <advance width="744"/>
  <outline>
    <contour>
      <point x="645" y="623" type="move" name="abvm_Ekaar"/>
    </contour>
    <contour>
      <point x="518" y="623" type="move" name="abvm_Anusvara"/>
    </contour>
    <contour>
      <point x="635" y="0" type="move" name="blwm_Ukaar"/>
    </contour>
    <contour>
      <point x="635" y="0" type="move" name="blwm_Uukaar"/>
    </contour>
    <contour>
      <point x="635" y="0" type="move" name="blwm_halant"/>
    </contour>
    <contour>
      <point x="663" y="0" type="move" name="blwm_VocalicR"/>
    </contour>
    <component base="dvG"/>
    <component base="dvDA" xOffset="254"/>
  </outline>
</glyph>
<glyph name="dvH_LA" format="1">
  <advance width="1116"/>
  <outline>
    <contour>
      <point x="490" y="671" type="move" name="TopAnusvara"/>
    </contour>
    <contour>
      <point x="490" y="671" type="move" name="TopChandra"/>
    </contour>
    <contour>
      <point x="490" y="671" type="move" name="TopEkaar"/>
    </contour>
    <contour>
      <point x="490" y="671" type="move" name="TopReph"/>
    </contour>
    <component base="dvHA"/>
    <component base="dvLA" xOffset="430"/>
    <component base="dvVirama" xOffset="380" yOffset="-58"/>
  </outline>
</glyph>
<glyph name="dvK_DA" format="1">
  <advance width="1010"/>
  <outline>
    <contour>
      <point x="911" y="623" type="move" name="abvm_Ekaar"/>
    </contour>
    <contour>
      <point x="784" y="623" type="move" name="abvm_Anusvara"/>
    </contour>
    <contour>
      <point x="901" y="0" type="move" name="blwm_Ukaar"/>
    </contour>
    <contour>
      <point x="901" y="0" type="move" name="blwm_Uukaar"/>
    </contour>
    <contour>
      <point x="901" y="0" type="move" name="blwm_halant"/>
    </contour>
    <contour>
      <point x="929" y="0" type="move" name="blwm_VocalicR"/>
    </contour>
    <component base="dvK"/>
    <component base="dvDA" xOffset="520"/>
  </outline>
</glyph>
<glyph name="dvK_KA" format="1">
  <advance width="1259"/>
  <outline>
    <contour>
      <point x="912" y="623" type="move" name="abvm_Ekaar"/>
    </contour>
    <contour>
      <point x="912" y="623" type="move" name="abvm_Anusvara"/>
    </contour>
    <contour>
      <point x="882" y="0" type="move" name="blwm_Ukaar"/>
    </contour>
    <contour>
      <point x="882" y="0" type="move" name="blwm_Uukaar"/>
    </contour>
    <contour>
      <point x="882" y="0" type="move" name="blwm_halant"/>
    </contour>
    <contour>
      <point x="912" y="0" type="move" name="blwm_VocalicR"/>
    </contour>
    <component base="dvK"/>
    <component base="dvKA" xOffset="535"/>
  </outline>
</glyph>
<glyph name="dvK_TTA" format="1">
  <advance width="987"/>
  <outline>
    <contour>
      <point x="872" y="623" type="move" name="abvm_Ekaar"/>
    </contour>
    <contour>
      <point x="781" y="623" type="move" name="abvm_Anusvara"/>
    </contour>
    <contour>
      <point x="776" y="-16" type="move" name="blwm_Ukaar"/>
    </contour>
    <contour>
      <point x="736" y="-16" type="move" name="blwm_Uukaar"/>
    </contour>
    <contour>
      <point x="736" y="41" type="move" name="blwm_halant"/>
    </contour>
    <contour>
      <point x="811" y="-16" type="move" name="blwm_VocalicR"/>
    </contour>
    <contour>
      <point x="864" y="57" type="move" name="blwm_Rashtra"/>
    </contour>
    <component base="dvK"/>
    <component base="dvTTA" xOffset="497"/>
  </outline>
</glyph>
<glyph name="dvL_D_RA" format="1">
  <advance width="940"/>
  <outline>
    <contour>
      <point x="841" y="623" type="move" name="abvm_Ekaar"/>
    </contour>
    <contour>
      <point x="714" y="623" type="move" name="abvm_Anusvara"/>
    </contour>
    <contour>
      <point x="831" y="0" type="move" name="blwm_Ukaar"/>
    </contour>
    <contour>
      <point x="831" y="0" type="move" name="blwm_Uukaar"/>
    </contour>
    <contour>
      <point x="831" y="0" type="move" name="blwm_halant"/>
    </contour>
    <contour>
      <point x="859" y="0" type="move" name="blwm_VocalicR"/>
    </contour>
    <component base="dvL"/>
    <component base="dvD_RA" xOffset="450"/>
  </outline>
</glyph>
<glyph name="dvL_KA" format="1">
  <advance width="1191"/>
  <outline>
    <contour>
      <point x="844" y="623" type="move" name="abvm_Ekaar"/>
    </contour>
    <contour>
      <point x="844" y="623" type="move" name="abvm_Anusvara"/>
    </contour>
    <contour>
      <point x="814" y="0" type="move" name="blwm_Ukaar"/>
    </contour>
    <contour>
      <point x="814" y="0" type="move" name="blwm_Uukaar"/>
    </contour>
    <contour>
      <point x="814" y="0" type="move" name="blwm_halant"/>
    </contour>
    <contour>
      <point x="844" y="0" type="move" name="blwm_VocalicR"/>
    </contour>
    <component base="dvL"/>
    <component base="dvKA" xOffset="467"/>
  </outline>
</glyph>
<glyph name="dvL_TTA" format="1">
  <advance width="941"/>
  <outline>
    <contour>
      <point x="826" y="623" type="move" name="abvm_Ekaar"/>
    </contour>
    <contour>
      <point x="735" y="623" type="move" name="abvm_Anusvara"/>
    </contour>
    <contour>
      <point x="730" y="-16" type="move" name="blwm_Ukaar"/>
    </contour>
    <contour>
      <point x="690" y="-16" type="move" name="blwm_Uukaar"/>
    </contour>
    <contour>
      <point x="690" y="41" type="move" name="blwm_halant"/>
    </contour>
    <contour>
      <point x="765" y="-16" type="move" name="blwm_VocalicR"/>
    </contour>
    <contour>
      <point x="818" y="57" type="move" name="blwm_Rashtra"/>
    </contour>
    <component base="dvL"/>
    <component base="dvTTA" xOffset="451"/>
  </outline>
</glyph>
<glyph name="dvNN_DDHA" format="1">
  <advance width="908"/>
  <outline>
    <contour>
      <point x="798" y="623" type="move" name="abvm_Ekaar"/>
    </contour>
    <contour>
      <point x="707" y="623" type="move" name="abvm_Anusvara"/>
    </contour>
    <contour>
      <point x="695" y="-16" type="move" name="blwm_Ukaar"/>
    </contour>
    <contour>
      <point x="662" y="-16" type="move" name="blwm_Uukaar"/>
    </contour>
    <contour>
      <point x="673" y="41" type="move" name="blwm_halant"/>
    </contour>
    <contour>
      <point x="737" y="-16" type="move" name="blwm_VocalicR"/>
    </contour>
    <contour>
      <point x="795" y="57" type="move" name="blwm_Rashtra"/>
    </contour>
    <component base="dvNN"/>
    <component base="dvDDHA" xOffset="423"/>
  </outline>
</glyph>
<glyph name="dvNN_TTA" format="1">
  <advance width="911"/>
  <outline>
    <contour>
      <point x="806" y="623" type="move" name="abvm_Ekaar"/>
    </contour>
    <contour>
      <point x="715" y="623" type="move" name="abvm_Anusvara"/>
    </contour>
    <contour>
      <point x="710" y="-16" type="move" name="blwm_Ukaar"/>
    </contour>
    <contour>
      <point x="670" y="-16" type="move" name="blwm_Uukaar"/>
    </contour>
    <contour>
      <point x="670" y="41" type="move" name="blwm_halant"/>
    </contour>
    <contour>
      <point x="745" y="-16" type="move" name="blwm_VocalicR"/>
    </contour>
    <contour>
      <point x="798" y="57" type="move" name="blwm_Rashtra"/>
    </contour>
    <component base="dvNN"/>
    <component base="dvTTA" xOffset="421"/>
  </outline>
</glyph>
<glyph name="dvNN_TTHA" format="1">
  <advance width="938"/>
  <outline>
    <contour>
      <point x="811" y="623" type="move" name="abvm_Ekaar"/>
    </contour>
    <contour>
      <point x="697" y="623" type="move" name="abvm_Anusvara"/>
    </contour>
    <contour>
      <point x="688" y="-16" type="move" name="blwm_Ukaar"/>
    </contour>
    <contour>
      <point x="661" y="-16" type="move" name="blwm_Uukaar"/>
    </contour>
    <contour>
      <point x="661" y="41" type="move" name="blwm_halant"/>
    </contour>
    <contour>
      <point x="740" y="-16" type="move" name="blwm_VocalicR"/>
    </contour>
    <contour>
      <point x="789" y="57" type="move" name="blwm_Rashtra"/>
    </contour>
    <component base="dvNN"/>
    <component base="dvTTHA" xOffset="422"/>
  </outline>
</glyph>
<glyph name="dvN_D_RA" format="1">
  <advance width="735"/>
  <outline>
    <contour>
      <point x="636" y="623" type="move" name="abvm_Ekaar"/>
    </contour>
    <contour>
      <point x="509" y="623" type="move" name="abvm_Anusvara"/>
    </contour>
    <contour>
      <point x="626" y="0" type="move" name="blwm_Ukaar"/>
    </contour>
    <contour>
      <point x="626" y="0" type="move" name="blwm_Uukaar"/>
    </contour>
    <contour>
      <point x="626" y="0" type="move" name="blwm_halant"/>
    </contour>
    <contour>
      <point x="654" y="0" type="move" name="blwm_VocalicR"/>
    </contour>
    <component base="dvN"/>
    <component base="dvD_RA" xOffset="245"/>
  </outline>
</glyph>
<glyph name="dvN_KA" format="1">
  <advance width="969"/>
  <outline>
    <contour>
      <point x="622" y="623" type="move" name="abvm_Ekaar"/>
    </contour>
    <contour>
      <point x="622" y="623" type="move" name="abvm_Anusvara"/>
    </contour>
    <contour>
      <point x="592" y="0" type="move" name="blwm_Ukaar"/>
    </contour>
    <contour>
      <point x="592" y="0" type="move" name="blwm_Uukaar"/>
    </contour>
    <contour>
      <point x="592" y="0" type="move" name="blwm_halant"/>
    </contour>
    <contour>
      <point x="622" y="0" type="move" name="blwm_VocalicR"/>
    </contour>
    <component base="dvN"/>
    <component base="dvKA" xOffset="245"/>
  </outline>
</glyph>
<glyph name="dvN_PHA" format="1">
  <advance width="964"/>
  <outline>
    <contour>
      <point x="617" y="623" type="move" name="abvm_Ekaar"/>
    </contour>
    <contour>
      <point x="617" y="623" type="move" name="abvm_Anusvara"/>
    </contour>
    <contour>
      <point x="588" y="0" type="move" name="blwm_Ukaar"/>
    </contour>
    <contour>
      <point x="588" y="0" type="move" name="blwm_Uukaar"/>
    </contour>
    <contour>
      <point x="588" y="0" type="move" name="blwm_halant"/>
    </contour>
    <contour>
      <point x="617" y="0" type="move" name="blwm_VocalicR"/>
    </contour>
    <component base="dvN"/>
    <component base="dvPHA" xOffset="227"/>
  </outline>
</glyph>
<glyph name="dvN_TTA" format="1">
  <advance width="720"/>
  <outline>
    <contour>
      <point x="605" y="623" type="move" name="abvm_Ekaar"/>
    </contour>
    <contour>
      <point x="514" y="623" type="move" name="abvm_Anusvara"/>
    </contour>
    <contour>
      <point x="509" y="-16" type="move" name="blwm_Ukaar"/>
    </contour>
    <contour>
      <point x="469" y="-16" type="move" name="blwm_Uukaar"/>
    </contour>
    <contour>
      <point x="469" y="41" type="move" name="blwm_halant"/>
    </contour>
    <contour>
      <point x="544" y="-16" type="move" name="blwm_VocalicR"/>
    </contour>
    <contour>
      <point x="597" y="57" type="move" name="blwm_Rashtra"/>
    </contour>
    <component base="dvN"/>
    <component base="dvTTA" xOffset="230"/>
  </outline>
</glyph>
<glyph name="dvPH_TTA" format="1">
  <advance width="1009"/>
  <outline>
    <contour>
      <point x="894" y="623" type="move" name="abvm_Ekaar"/>
    </contour>
    <contour>
      <point x="803" y="623" type="move" name="abvm_Anusvara"/>
    </contour>
    <contour>
      <point x="798" y="-16" type="move" name="blwm_Ukaar"/>
    </contour>
    <contour>
      <point x="758" y="-16" type="move" name="blwm_Uukaar"/>
    </contour>
    <contour>
      <point x="758" y="41" type="move" name="blwm_halant"/>
    </contour>
    <contour>
      <point x="833" y="-16" type="move" name="blwm_VocalicR"/>
    </contour>
    <contour>
      <point x="886" y="57" type="move" name="blwm_Rashtra"/>
    </contour>
    <component base="dvPH"/>
    <component base="dvTTA" xOffset="519"/>
  </outline>
</glyph>
<glyph name="dvSHA.amvR" format="1">
  <advance width="536"/>
  <outline>
    <contour>
      <point x="436" y="14" type="move" name="blwm_VocalicR"/>
    </contour>
    <contour>
      <point x="406" y="19" type="line"/>
      <point x="406" y="12"/>
      <point x="409" y="10"/>
      <point x="414" y="10" type="curve" smooth="yes"/>
      <point x="428" y="10" type="line" smooth="yes"/>
      <point x="433" y="10"/>
      <point x="436" y="12"/>
      <point x="436" y="19" type="curve" smooth="yes"/>
      <point x="436" y="590" type="line"/>
      <point x="436" y="595"/>
      <point x="438" y="598"/>
      <point x="445" y="598" type="curve" smooth="yes"/>
      <point x="537" y="598" type="line" smooth="yes"/>
      <point x="544" y="598"/>
      <point x="546" y="601"/>
      <point x="546" y="606" type="curve" smooth="yes"/>
      <point x="546" y="615" type="line" smooth="yes"/>
      <point x="546" y="620"/>
      <point x="544" y="623"/>
      <point x="537" y="623" type="curve" smooth="yes"/>
      <point x="422" y="623" type="line" smooth="yes"/>
      <point x="413" y="623"/>
      <point x="406" y="615"/>
      <point x="406" y="605" type="curve" smooth="yes"/>
    </contour>
    <contour>
      <point x="33" y="227" type="line"/>
      <point x="35" y="224"/>
      <point x="37" y="223"/>
      <point x="40" y="223" type="curve" smooth="yes"/>
      <point x="43" y="223"/>
      <point x="47" y="225"/>
      <point x="50" y="227" type="curve" smooth="yes"/>
      <point x="215" y="333" type="line" smooth="yes"/>
      <point x="261" y="363"/>
      <point x="316" y="410"/>
      <point x="316" y="499" type="curve" smooth="yes"/>
      <point x="316" y="591"/>
      <point x="269" y="623"/>
      <point x="191" y="623" type="curve" smooth="yes"/>
      <point x="107" y="623"/>
      <point x="63" y="591"/>
      <point x="63" y="500" type="curve" smooth="yes"/>
      <point x="63" y="420"/>
      <point x="108" y="375"/>
      <point x="161" y="341" type="curve" smooth="yes"/>
      <point x="410" y="182" type="line"/>
      <point x="433" y="204" type="line"/>
      <point x="173" y="369" type="line" smooth="yes"/>
      <point x="130" y="396"/>
      <point x="92" y="434"/>
      <point x="92" y="500" type="curve" smooth="yes"/>
      <point x="92" y="573"/>
      <point x="120" y="598"/>
      <point x="191" y="598" type="curve" smooth="yes"/>
      <point x="262" y="598"/>
      <point x="286" y="573"/>
      <point x="286" y="500" type="curve" smooth="yes"/>
      <point x="286" y="448"/>
      <point x="260" y="397"/>
      <point x="200" y="358" type="curve" smooth="yes"/>
      <point x="32" y="250" type="line" smooth="yes"/>
      <point x="27" y="247"/>
      <point x="25" y="245"/>
      <point x="25" y="242" type="curve" smooth="yes"/>
      <point x="25" y="240"/>
      <point x="26" y="238"/>
      <point x="27" y="236" type="curve" smooth="yes"/>
    </contour>
  </outline>
</glyph>
<glyph name="dvS_DA" format="1">
  <advance width="852"/>
  <outline>
    <contour>
      <point x="753" y="623" type="move" name="abvm_Ekaar"/>
    </contour>
    <contour>
      <point x="626" y="623" type="move" name="abvm_Anusvara"/>
    </contour>
    <contour>
      <point x="743" y="0" type="move" name="blwm_Ukaar"/>
    </contour>
    <contour>
      <point x="743" y="0" type="move" name="blwm_Uukaar"/>
    </contour>
    <contour>
      <point x="743" y="0" type="move" name="blwm_halant"/>
    </contour>
    <contour>
      <point x="771" y="0" type="move" name="blwm_VocalicR"/>
    </contour>
    <component base="dvS"/>
    <component base="dvDA" xOffset="362"/>
  </outline>
</glyph>
<glyph name="dvS_K_RA" format="1">
  <advance width="1080"/>
  <outline>
    <contour>
      <point x="733" y="623" type="move" name="abvm_Ekaar"/>
    </contour>
    <contour>
      <point x="733" y="623" type="move" name="abvm_Anusvara"/>
    </contour>
    <contour>
      <point x="703" y="0" type="move" name="blwm_Ukaar"/>
    </contour>
    <contour>
      <point x="703" y="0" type="move" name="blwm_Uukaar"/>
    </contour>
    <contour>
      <point x="703" y="0" type="move" name="blwm_halant"/>
    </contour>
    <contour>
      <point x="733" y="0" type="move" name="blwm_VocalicR"/>
    </contour>
    <component base="dvS"/>
    <component base="dvK_RA" xOffset="356"/>
  </outline>
</glyph>
<glyph name="dvTTH_NA" format="1">
  <advance width="516"/>
  <outline>
    <contour>
      <point x="389" y="623" type="move" name="abvm_Ekaar"/>
    </contour>
    <contour>
      <point x="278" y="623" type="move" name="abvm_Anusvara"/>
    </contour>
    <contour>
      <point x="350" y="-217" type="move" name="blwm_Ukaar"/>
    </contour>
    <contour>
      <point x="350" y="-217" type="move" name="blwm_Uukaar"/>
    </contour>
    <contour>
      <point x="350" y="-217" type="move" name="blwm_halant"/>
    </contour>
    <contour>
      <point x="380" y="-217" type="move" name="blwm_VocalicR"/>
    </contour>
    <contour>
      <point x="517" y="598" type="line"/>
      <point x="524" y="598"/>
      <point x="526" y="601"/>
      <point x="526" y="606" type="curve" smooth="yes"/>
      <point x="526" y="615" type="line" smooth="yes"/>
      <point x="526" y="620"/>
      <point x="524" y="623"/>
      <point x="517" y="623" type="curve" smooth="yes"/>
      <point x="-1" y="623" type="line" smooth="yes"/>
      <point x="-8" y="623"/>
      <point x="-10" y="620"/>
      <point x="-10" y="615" type="curve" smooth="yes"/>
      <point x="-10" y="606" type="line" smooth="yes"/>
      <point x="-10" y="601"/>
      <point x="-8" y="598"/>
      <point x="-1" y="598" type="curve" smooth="yes"/>
      <point x="350" y="598" type="line" smooth="yes"/>
      <point x="357" y="598"/>
      <point x="359" y="595"/>
      <point x="359" y="590" type="curve" smooth="yes"/>
      <point x="359" y="542" type="line" smooth="yes"/>
      <point x="359" y="474"/>
      <point x="330" y="460"/>
      <point x="282" y="460" type="curve" smooth="yes"/>
      <point x="208" y="460" type="line" smooth="yes"/>
      <point x="127" y="460"/>
      <point x="74" y="407"/>
      <point x="74" y="324" type="curve" smooth="yes"/>
      <point x="74" y="247" type="line" smooth="yes"/>
      <point x="74" y="164"/>
      <point x="127" y="111"/>
      <point x="208" y="111" type="curve" smooth="yes"/>
      <point x="298" y="111" type="line" smooth="yes"/>
      <point x="379" y="111"/>
      <point x="432" y="164"/>
      <point x="432" y="247" type="curve" smooth="yes"/>
      <point x="432" y="324" type="line" smooth="yes"/>
      <point x="432" y="386"/>
      <point x="399" y="434"/>
      <point x="348" y="447" type="curve"/>
      <point x="348" y="451" type="line"/>
      <point x="377" y="468"/>
      <point x="389" y="491"/>
      <point x="389" y="542" type="curve" smooth="yes"/>
      <point x="389" y="590" type="line" smooth="yes"/>
      <point x="389" y="595"/>
      <point x="391" y="598"/>
      <point x="398" y="598" type="curve"/>
    </contour>
    <contour>
      <point x="298" y="432" type="line"/>
      <point x="365" y="432"/>
      <point x="402" y="391"/>
      <point x="402" y="323" type="curve" smooth="yes"/>
      <point x="402" y="248" type="line" smooth="yes"/>
      <point x="402" y="180"/>
      <point x="365" y="139"/>
      <point x="298" y="139" type="curve"/>
      <point x="208" y="139" type="line" smooth="yes"/>
      <point x="141" y="139"/>
      <point x="104" y="180"/>
      <point x="104" y="248" type="curve" smooth="yes"/>
      <point x="104" y="323" type="line" smooth="yes"/>
      <point x="104" y="391"/>
      <point x="141" y="432"/>
      <point x="208" y="432" type="curve" smooth="yes"/>
    </contour>
    <contour>
      <point x="350" y="145" type="line"/>
      <point x="350" y="17" type="line" smooth="yes"/>
      <point x="350" y="12"/>
      <point x="348" y="9"/>
      <point x="341" y="9" type="curve" smooth="yes"/>
      <point x="168" y="9" type="line" smooth="yes"/>
      <point x="107" y="9"/>
      <point x="78" y="-29"/>
      <point x="78" y="-80" type="curve" smooth="yes"/>
      <point x="78" y="-100"/>
      <point x="84" y="-127"/>
      <point x="92" y="-151" type="curve" smooth="yes"/>
      <point x="94" y="-158"/>
      <point x="98" y="-160"/>
      <point x="103" y="-160" type="curve" smooth="yes"/>
      <point x="116" y="-160" type="line" smooth="yes"/>
      <point x="120" y="-160"/>
      <point x="123" y="-158"/>
      <point x="123" y="-154" type="curve" smooth="yes"/>
      <point x="123" y="-150"/>
      <point x="122" y="-147"/>
      <point x="119" y="-138" type="curve" smooth="yes"/>
      <point x="113" y="-119"/>
      <point x="108" y="-100"/>
      <point x="108" y="-81" type="curve" smooth="yes"/>
      <point x="108" y="-46"/>
      <point x="126" y="-18"/>
      <point x="169" y="-18" type="curve" smooth="yes"/>
      <point x="341" y="-18" type="line" smooth="yes"/>
      <point x="348" y="-18"/>
      <point x="350" y="-21"/>
      <point x="350" y="-26" type="curve" smooth="yes"/>
      <point x="350" y="-208" type="line" smooth="yes"/>
      <point x="350" y="-215"/>
      <point x="353" y="-217"/>
      <point x="358" y="-217" type="curve" smooth="yes"/>
      <point x="372" y="-217" type="line" smooth="yes"/>
      <point x="377" y="-217"/>
      <point x="380" y="-215"/>
      <point x="380" y="-208" type="curve" smooth="yes"/>
      <point x="380" y="145" type="line"/>
    </contour>
  </outline>
</glyph>
<glyph name="dvTT_NA" format="1">
  <advance width="490"/>
  <outline>
    <contour>
      <point x="375" y="623" type="move" name="abvm_Ekaar"/>
    </contour>
    <contour>
      <point x="286" y="623" type="move" name="abvm_Anusvara"/>
    </contour>
    <contour>
      <point x="350" y="-217" type="move" name="blwm_Ukaar"/>
    </contour>
    <contour>
      <point x="350" y="-217" type="move" name="blwm_Uukaar"/>
    </contour>
    <contour>
      <point x="350" y="-217" type="move" name="blwm_halant"/>
    </contour>
    <contour>
      <point x="380" y="-217" type="move" name="blwm_VocalicR"/>
    </contour>
    <contour>
      <point x="209" y="440" type="line"/>
      <point x="128" y="440"/>
      <point x="75" y="387"/>
      <point x="75" y="304" type="curve"/>
      <point x="75" y="247" type="line"/>
      <point x="75" y="164"/>
      <point x="128" y="111"/>
      <point x="209" y="111" type="curve" smooth="yes"/>
      <point x="299" y="111" type="line" smooth="yes"/>
      <point x="380" y="111"/>
      <point x="433" y="164"/>
      <point x="433" y="247" type="curve" smooth="yes"/>
      <point x="433" y="297" type="line" smooth="yes"/>
      <point x="433" y="304"/>
      <point x="430" y="306"/>
      <point x="425" y="306" type="curve" smooth="yes"/>
      <point x="411" y="306" type="line" smooth="yes"/>
      <point x="406" y="306"/>
      <point x="403" y="304"/>
      <point x="403" y="297" type="curve" smooth="yes"/>
      <point x="403" y="248" type="line" smooth="yes"/>
      <point x="403" y="180"/>
      <point x="366" y="139"/>
      <point x="299" y="139" type="curve" smooth="yes"/>
      <point x="209" y="139" type="line" smooth="yes"/>
      <point x="142" y="139"/>
      <point x="105" y="180"/>
      <point x="105" y="248" type="curve" smooth="yes"/>
      <point x="105" y="303" type="line" smooth="yes"/>
      <point x="105" y="371"/>
      <point x="142" y="412"/>
      <point x="209" y="412" type="curve"/>
      <point x="359" y="412" type="line" smooth="yes"/>
      <point x="368" y="412"/>
      <point x="375" y="420"/>
      <point x="375" y="430" type="curve" smooth="yes"/>
      <point x="375" y="590" type="line" smooth="yes"/>
      <point x="375" y="595"/>
      <point x="377" y="598"/>
      <point x="384" y="598" type="curve" smooth="yes"/>
      <point x="491" y="598" type="line" smooth="yes"/>
      <point x="498" y="598"/>
      <point x="500" y="601"/>
      <point x="500" y="606" type="curve" smooth="yes"/>
      <point x="500" y="615" type="line" smooth="yes"/>
      <point x="500" y="620"/>
      <point x="498" y="623"/>
      <point x="491" y="623" type="curve" smooth="yes"/>
      <point x="-1" y="623" type="line" smooth="yes"/>
      <point x="-8" y="623"/>
      <point x="-10" y="620"/>
      <point x="-10" y="615" type="curve" smooth="yes"/>
      <point x="-10" y="606" type="line" smooth="yes"/>
      <point x="-10" y="601"/>
      <point x="-8" y="598"/>
      <point x="-1" y="598" type="curve" smooth="yes"/>
      <point x="336" y="598" type="line" smooth="yes"/>
      <point x="343" y="598"/>
      <point x="345" y="595"/>
      <point x="345" y="590" type="curve" smooth="yes"/>
      <point x="345" y="448" type="line" smooth="yes"/>
      <point x="345" y="443"/>
      <point x="343" y="440"/>
      <point x="336" y="440" type="curve"/>
    </contour>
    <contour>
      <point x="350" y="145" type="line"/>
      <point x="350" y="17" type="line" smooth="yes"/>
      <point x="350" y="12"/>
      <point x="348" y="9"/>
      <point x="341" y="9" type="curve" smooth="yes"/>
      <point x="168" y="9" type="line" smooth="yes"/>
      <point x="107" y="9"/>
      <point x="78" y="-29"/>
      <point x="78" y="-80" type="curve" smooth="yes"/>
      <point x="78" y="-100"/>
      <point x="84" y="-127"/>
      <point x="92" y="-151" type="curve" smooth="yes"/>
      <point x="94" y="-158"/>
      <point x="98" y="-160"/>
      <point x="103" y="-160" type="curve" smooth="yes"/>
      <point x="116" y="-160" type="line" smooth="yes"/>
      <point x="120" y="-160"/>
      <point x="123" y="-158"/>
      <point x="123" y="-154" type="curve" smooth="yes"/>
      <point x="123" y="-150"/>
      <point x="122" y="-147"/>
      <point x="119" y="-138" type="curve" smooth="yes"/>
      <point x="113" y="-119"/>
      <point x="108" y="-100"/>
      <point x="108" y="-81" type="curve" smooth="yes"/>
      <point x="108" y="-46"/>
      <point x="126" y="-18"/>
      <point x="169" y="-18" type="curve" smooth="yes"/>
      <point x="341" y="-18" type="line" smooth="yes"/>
      <point x="348" y="-18"/>
      <point x="350" y="-21"/>
      <point x="350" y="-26" type="curve" smooth="yes"/>
      <point x="350" y="-208" type="line" smooth="yes"/>
      <point x="350" y="-215"/>
      <point x="353" y="-217"/>
      <point x="358" y="-217" type="curve" smooth="yes"/>
      <point x="372" y="-217" type="line" smooth="yes"/>
      <point x="377" y="-217"/>
      <point x="380" y="-215"/>
      <point x="380" y="-208" type="curve" smooth="yes"/>
      <point x="380" y="145" type="line"/>
    </contour>
  </outline>
</glyph>
